<?xml version="1.0" encoding="UTF-8"?> <svg xmlns="http://www.w3.org/2000/svg" xmlns:xlink="http://www.w3.org/1999/xlink" width="747px" height="548px" viewBox="0 0 747 548"> <!-- Generator: Sketch 48.1 (47250) - http://www.bohemiancoding.com/sketch --> <title>Group 10</title> <desc>Created with Sketch.</desc> <defs> <rect id="path-1" x="0" y="0" width="615" height="444" rx="5"></rect> <filter x="-8.8%" y="-6.5%" width="117.6%" height="126.1%" filterUnits="objectBoundingBox" id="filter-2"> <feMorphology radius="7.5" operator="erode" in="SourceAlpha" result="shadowSpreadOuter1"></feMorphology> <feOffset dx="0" dy="33" in="shadowSpreadOuter1" result="shadowOffsetOuter1"></feOffset> <feGaussianBlur stdDeviation="20" in="shadowOffsetOuter1" result="shadowBlurOuter1"></feGaussianBlur> <feColorMatrix values="0 0 0 0 0 0 0 0 0 0 0 0 0 0 0 0 0 0 0.118121603 0" type="matrix" in="shadowBlurOuter1"></feColorMatrix> </filter> <rect id="path-3" x="37.0052539" y="79.9708738" width="375.89317" height="29.0970874" rx="14.5485437"></rect> <rect id="path-4" x="0" y="0" width="196" height="279" rx="5"></rect> <filter x="-45.9%" y="-14.3%" width="161.2%" height="143.0%" filterUnits="objectBoundingBox" id="filter-6"> <feMorphology radius="5" operator="erode" in="SourceAlpha" result="shadowSpreadOuter1"></feMorphology> <feOffset dx="-30" dy="20" in="shadowSpreadOuter1" result="shadowOffsetOuter1"></feOffset> <feGaussianBlur stdDeviation="20" in="shadowOffsetOuter1" result="shadowBlurOuter1"></feGaussianBlur> <feColorMatrix values="0 0 0 0 0 0 0 0 0 0 0 0 0 0 0 0 0 0 0.0692934783 0" type="matrix" in="shadowBlurOuter1"></feColorMatrix> </filter> <rect id="path-7" x="0" y="0.0772200772" width="164.769231" height="29.0849421" rx="14.542471"></rect> </defs> <g id="Landing-page-6-Copy" stroke="none" stroke-width="1" fill="none" fill-rule="evenodd" transform="translate(-876.000000, -188.000000)"> <g id="Group-10" transform="translate(901.000000, 188.000000)"> <g id="Group"> <g id="Mask"> <use fill="black" fill-opacity="1" filter="url(#filter-2)" xlink:href="#path-1"></use> <use fill="#FFFFFF" fill-rule="evenodd" xlink:href="#path-1"></use> </g> <g id="Rectangle"> <use fill="#FFFFFF" fill-rule="evenodd" xlink:href="#path-3"></use> <rect stroke="#C7C7C7" stroke-width="1" x="37.5052539" y="80.4708738" width="374.89317" height="28.0970874" rx="14.0485437"></rect> </g> <path d="M5,0 L610,8.8817842e-16 C612.761424,-6.33876484e-14 615,2.23857625 615,5 L615,25.8640777 L0,25.8640777 L1.77635684e-15,5 C1.43817996e-15,2.23857625 2.23857625,1.39544373e-15 5,8.8817842e-16 Z" id="Rectangle-113-Copy" fill="#F1F4F7"></path> <ellipse id="Oval-2" fill="#FE8484" cx="17.2329247" cy="12.9320388" rx="4.30823117" ry="4.31067961"></ellipse> <ellipse id="Oval-2-Copy" fill="#F5B556" cx="35.5429072" cy="12.9320388" rx="4.30823117" ry="4.31067961"></ellipse> <ellipse id="Oval-2-Copy-2" fill="#3DD46C" cx="54.9299475" cy="12.9320388" rx="4.30823117" ry="4.31067961"></ellipse> <text id="Online-Visiblity" font-family="OpenSans-SemiBold, Open Sans" font-size="10" font-weight="500" fill="#7F838C"> <tspan x="56.3409178" y="97.9805825">Online Visiblity</tspan> </text> </g> <g id="Phone-mockup" transform="translate(526.000000, 219.000000)"> <g id="Group-8"> <mask id="mask-5" fill="white"> <use xlink:href="#path-4"></use> </mask> <g id="Mask"> <use fill="black" fill-opacity="1" filter="url(#filter-6)" xlink:href="#path-4"></use> <use fill="#FFFFFF" fill-rule="evenodd" xlink:href="#path-4"></use> </g> <g mask="url(#mask-5)"> <g transform="translate(15.076923, 80.857143)"> <g id="Rectangle-Copy" fill="none"> <use fill="#FFFFFF" fill-rule="evenodd" xlink:href="#path-7"></use> <rect stroke="#C7C7C7" stroke-width="1" x="0.5" y="0.577220077" width="163.769231" height="28.0849421" rx="14.042471"></rect> </g> <text id="Online-Visiblity-Copy" fill="none" font-family="OpenSans-SemiBold, Open Sans" font-size="10" font-weight="500"> <tspan x="19.328726" y="18.0810811" fill="#7F838C">Online Visiblity</tspan> </text> <text id="All-Copy" fill="none" font-family="OpenSans-SemiBold, Open Sans" font-size="10" font-weight="500"> <tspan x="7.36778846" y="62.2471042" fill="#2F99FF">All</tspan> </text> <text id="Images-Copy" fill="none" font-family="OpenSans-SemiBold, Open Sans" font-size="10" font-weight="500"> <tspan x="47.3846154" y="62.2471042" fill="#8D9097">Images</tspan> </text> <text id="Videos-Copy" fill="none" font-family="OpenSans-SemiBold, Open Sans" font-size="10" font-weight="500"> <tspan x="112" y="62.2471042" fill="#8D9097">Videos</tspan> </text> <rect id="Rectangle-2-Copy" fill="#2F99FF" fill-rule="evenodd" x="5.38461538" y="69.019305" width="17.2307692" height="1.07722008" rx="0.538610039"></rect> <text id="Your-Name-on-top-of-Copy" fill="none" font-family="OpenSans-SemiBold, Open Sans" font-size="13" font-weight="500"> <tspan x="5.38461538" y="104.876448" fill="#2F99FF">Your Name on top </tspan> <tspan x="5.38461538" y="122.876448" fill="#2F99FF">of the world</tspan> </text> <text id="www.exponentthemes.c-copy-2" fill="none" font-family="OpenSans-Regular, Open Sans" font-size="10" font-weight="normal" fill-opacity="0.507727582"> <tspan x="5.38461538" y="147.888031" fill="#3DB02A">www.exponentthemes.com</tspan> <tspan x="5.38461538" y="161.888031" fill="#3DB02A">/madras</tspan> </text> <text id="I-am-so-happy,-my-de-Copy-2" fill="none" font-family="OpenSans-Regular, Open Sans" font-size="10" font-weight="normal"> <tspan x="5.38461538" y="185.586873" fill="#98A5B1">I am so happy, my dear friend, so </tspan> <tspan x="5.38461538" y="201.586873" fill="#98A5B1">absorbed in the exquisite sense of </tspan> <tspan x="5.38461538" y="217.586873" fill="#98A5B1">mere tranquil existence, that I </tspan> <tspan x="5.38461538" y="233.586873" fill="#98A5B1">neglect my talents. I should be </tspan> <tspan x="5.38461538" y="249.586873" fill="#98A5B1">incapable of drawing a single </tspan> <tspan x="5.38461538" y="265.586873" fill="#98A5B1">stroke at the present moment; </tspan> <tspan x="5.38461538" y="281.586873" fill="#98A5B1">and yet I feel that I never was a </tspan> <tspan x="5.38461538" y="297.586873" fill="#98A5B1">greater artist than now.</tspan> </text> </g> </g> </g> <path d="M5,0 L191,0 C193.761424,-5.07265313e-16 196,2.23857625 196,5 L196,23.6988417 L0,23.6988417 L0,5 C-3.38176876e-16,2.23857625 2.23857625,5.07265313e-16 5,0 Z" id="Rectangle-113-Copy-3" fill="#F1F4F7"></path> <ellipse id="Oval-2-Copy-3" fill="#FE8484" cx="17.2307692" cy="12.9266409" rx="4.30769231" ry="4.30888031"></ellipse> <ellipse id="Oval-2-Copy-4" fill="#F5B556" cx="35.5384615" cy="12.9266409" rx="4.30769231" ry="4.30888031"></ellipse> <ellipse id="Oval-2-Copy-5" fill="#3DD46C" cx="54.9230769" cy="12.9266409" rx="4.30769231" ry="4.30888031"></ellipse> </g> <text id="All" font-family="OpenSans-SemiBold, Open Sans" font-size="10" font-weight="500" fill="#2F99FF"> <tspan x="42.90625" y="141">All</tspan> </text> <text id="Images" font-family="OpenSans-SemiBold, Open Sans" font-size="10" font-weight="500" fill="#8D9097"> <tspan x="83" y="141">Images</tspan> </text> <text id="Videos" font-family="OpenSans-SemiBold, Open Sans" font-size="10" font-weight="500" fill="#8D9097"> <tspan x="148" y="141">Videos</tspan> </text> <text id="News" font-family="OpenSans-SemiBold, Open Sans" font-size="10" font-weight="500" fill="#8D9097"> <tspan x="209" y="141">News</tspan> </text> <text id="More" font-family="OpenSans-SemiBold, Open Sans" font-size="10" font-weight="500" fill="#8D9097"> <tspan x="265" y="141">More</tspan> </text> <rect id="Rectangle-2" fill="#2F99FF" x="41" y="148" width="17" height="1" rx="0.5"></rect> <text id="Your-Name-on-top-of" font-family="OpenSans-SemiBold, Open Sans" font-size="13" font-weight="500" fill="#2F99FF"> <tspan x="41" y="188">Your Name on top of the world</tspan> </text> <text id="www.exponentthemes.c" font-family="OpenSans-Regular, Open Sans" font-size="10" font-weight="normal" fill="#3DB02A" fill-opacity="0.507727582"> <tspan x="41" y="209">www.exponentthemes.com/madras</tspan> </text> <text id="I-am-so-happy,-my-de" font-family="OpenSans-Regular, Open Sans" font-size="10" font-weight="normal" fill="#98A5B1"> <tspan x="41" y="232">I am so happy, my dear friend, so absorbed in the exquisite sense of mere tranquil existence, that </tspan> <tspan x="41" y="250">I neglect my talents. I should be incapable of drawing a single stroke at the present moment; and </tspan> <tspan x="41" y="268">yet I feel that I never was a greater artist than now.</tspan> </text> <g id="Group-7" opacity="0.5" transform="translate(41.000000, 301.000000)"> <text id="Maybe-on-the-second" font-family="OpenSans-SemiBold, Open Sans" font-size="13" font-weight="500" fill="#5B7D9F"> <tspan x="0" y="14.7346939">Maybe on the second one too</tspan> </text> <text id="www.exponentthemes.c-copy" font-family="OpenSans-Regular, Open Sans" font-size="10" font-weight="normal" fill="#929497"> <tspan x="0" y="35.3673469">www.exponentthemes.com/madras</tspan> </text> <text id="I-am-so-happy,-my-de-Copy" font-family="OpenSans-Regular, Open Sans" font-size="10" font-weight="normal" fill="#B5B5B5"> <tspan x="0" y="58.5918367">I am so happy, my dear friend, so absorbed in the exquisite sense of mere tranquil existence, </tspan> <tspan x="0" y="76.5918367">that I neglect my talents. I should be incapable of drawing a single stroke at the present moment; </tspan> <tspan x="0" y="94.5918367">and yet I feel that I never was a greater artist than now.</tspan> </text> </g> <g id="Group-2" transform="translate(388.000000, 86.000000)" stroke="#3EA0FE" stroke-width="2"> <ellipse id="Oval-3" transform="translate(6.928366, 6.551611) rotate(-45.000000) translate(-6.928366, -6.551611) " cx="6.92836624" cy="6.55161133" rx="4.22330334" ry="4.23986532"></ellipse> <path d="M13.1375875,9.17503939 L13.1375875,15.3391255" id="Line" stroke-linecap="square" transform="translate(13.137587, 12.257082) rotate(-45.000000) translate(-13.137587, -12.257082) "></path> </g> <g id="google-logo" transform="translate(41.000000, 43.000000)" fill-rule="nonzero"> <path d="M9.24,8.19 L9.24,10.65 L15.12,10.65 C14.94,12.03 14.48,13.04 13.78,13.75 C12.92,14.61 11.58,15.55 9.24,15.55 C5.62,15.55 2.79,12.63 2.79,9.01 C2.79,5.39 5.62,2.47 9.24,2.47 C11.19,2.47 12.62,3.24 13.67,4.23 L15.4,2.5 C13.94,1.08 11.98,0 9.24,0 C4.28,0 0.11,4.04 0.11,9 C0.11,13.96 4.28,18 9.24,18 C11.92,18 13.94,17.12 15.52,15.48 C17.14,13.86 17.65,11.57 17.65,9.73 C17.65,9.16 17.61,8.63 17.52,8.19 L9.24,8.19 Z" id="Shape" fill="#4285F4"></path> <path d="M25,6.19 C21.79,6.19 19.17,8.63 19.17,12 C19.17,15.34 21.79,17.81 25,17.81 C28.21,17.81 30.83,15.35 30.83,12 C30.83,8.63 28.21,6.19 25,6.19 Z M25,15.52 C23.24,15.52 21.72,14.07 21.72,12 C21.72,9.91 23.24,8.48 25,8.48 C26.76,8.48 28.28,9.91 28.28,12 C28.28,14.07 26.76,15.52 25,15.52 Z" id="Shape" fill="#EA4335"></path> <path d="M53.58,7.49 L53.49,7.49 C52.92,6.81 51.82,6.19 50.43,6.19 C47.53,6.19 45,8.72 45,12 C45,15.26 47.53,17.81 50.43,17.81 C51.82,17.81 52.92,17.19 53.49,16.49 L53.58,16.49 L53.58,17.3 C53.58,19.52 52.39,20.71 50.48,20.71 C48.92,20.71 47.95,19.59 47.55,18.64 L45.33,19.56 C45.97,21.1 47.66,22.99 50.48,22.99 C53.47,22.99 56,21.23 56,16.94 L56,6.49 L53.58,6.49 L53.58,7.49 Z M50.65,15.52 C48.89,15.52 47.55,14.02 47.55,12 C47.55,9.95 48.89,8.48 50.65,8.48 C52.39,8.48 53.75,9.98 53.75,12.02 C53.76,14.05 52.39,15.52 50.65,15.52 Z" id="Shape" fill="#4285F4"></path> <path d="M38,6.19 C34.79,6.19 32.17,8.63 32.17,12 C32.17,15.34 34.79,17.81 38,17.81 C41.21,17.81 43.83,15.35 43.83,12 C43.83,8.63 41.21,6.19 38,6.19 Z M38,15.52 C36.24,15.52 34.72,14.07 34.72,12 C34.72,9.91 36.24,8.48 38,8.48 C39.76,8.48 41.28,9.91 41.28,12 C41.28,14.07 39.76,15.52 38,15.52 Z" id="Shape" fill="#FBBC05"></path> <polygon id="Shape" fill="#34A853" points="58 0.24 60.51 0.24 60.51 17.81 58 17.81"></polygon> <path d="M68.26,15.52 C66.96,15.52 66.04,14.93 65.44,13.76 L73.21,10.55 L72.95,9.89 C72.47,8.59 70.99,6.19 67.98,6.19 C64.99,6.19 62.5,8.54 62.5,12 C62.5,15.26 64.96,17.81 68.26,17.81 C70.92,17.81 72.46,16.18 73.1,15.24 L71.12,13.92 C70.46,14.88 69.56,15.52 68.26,15.52 Z M68.08,8.37 C69.11,8.37 69.99,8.9 70.28,9.65 L65.03,11.82 C65.03,9.38 66.76,8.37 68.08,8.37 Z" id="Shape" fill="#EA4335"></path> </g> <g id="google-logo" transform="translate(544.000000, 261.000000)" fill-rule="nonzero"> <path d="M9.24,8.19 L9.24,10.65 L15.12,10.65 C14.94,12.03 14.48,13.04 13.78,13.75 C12.92,14.61 11.58,15.55 9.24,15.55 C5.62,15.55 2.79,12.63 2.79,9.01 C2.79,5.39 5.62,2.47 9.24,2.47 C11.19,2.47 12.62,3.24 13.67,4.23 L15.4,2.5 C13.94,1.08 11.98,0 9.24,0 C4.28,0 0.11,4.04 0.11,9 C0.11,13.96 4.28,18 9.24,18 C11.92,18 13.94,17.12 15.52,15.48 C17.14,13.86 17.65,11.57 17.65,9.73 C17.65,9.16 17.61,8.63 17.52,8.19 L9.24,8.19 Z" id="Shape" fill="#4285F4"></path> <path d="M25,6.19 C21.79,6.19 19.17,8.63 19.17,12 C19.17,15.34 21.79,17.81 25,17.81 C28.21,17.81 30.83,15.35 30.83,12 C30.83,8.63 28.21,6.19 25,6.19 Z M25,15.52 C23.24,15.52 21.72,14.07 21.72,12 C21.72,9.91 23.24,8.48 25,8.48 C26.76,8.48 28.28,9.91 28.28,12 C28.28,14.07 26.76,15.52 25,15.52 Z" id="Shape" fill="#EA4335"></path> <path d="M53.58,7.49 L53.49,7.49 C52.92,6.81 51.82,6.19 50.43,6.19 C47.53,6.19 45,8.72 45,12 C45,15.26 47.53,17.81 50.43,17.81 C51.82,17.81 52.92,17.19 53.49,16.49 L53.58,16.49 L53.58,17.3 C53.58,19.52 52.39,20.71 50.48,20.71 C48.92,20.71 47.95,19.59 47.55,18.64 L45.33,19.56 C45.97,21.1 47.66,22.99 50.48,22.99 C53.47,22.99 56,21.23 56,16.94 L56,6.49 L53.58,6.49 L53.58,7.49 Z M50.65,15.52 C48.89,15.52 47.55,14.02 47.55,12 C47.55,9.95 48.89,8.48 50.65,8.48 C52.39,8.48 53.75,9.98 53.75,12.02 C53.76,14.05 52.39,15.52 50.65,15.52 Z" id="Shape" fill="#4285F4"></path> <path d="M38,6.19 C34.79,6.19 32.17,8.63 32.17,12 C32.17,15.34 34.79,17.81 38,17.81 C41.21,17.81 43.83,15.35 43.83,12 C43.83,8.63 41.21,6.19 38,6.19 Z M38,15.52 C36.24,15.52 34.72,14.07 34.72,12 C34.72,9.91 36.24,8.48 38,8.48 C39.76,8.48 41.28,9.91 41.28,12 C41.28,14.07 39.76,15.52 38,15.52 Z" id="Shape" fill="#FBBC05"></path> <polygon id="Shape" fill="#34A853" points="58 0.24 60.51 0.24 60.51 17.81 58 17.81"></polygon> <path d="M68.26,15.52 C66.96,15.52 66.04,14.93 65.44,13.76 L73.21,10.55 L72.95,9.89 C72.47,8.59 70.99,6.19 67.98,6.19 C64.99,6.19 62.5,8.54 62.5,12 C62.5,15.26 64.96,17.81 68.26,17.81 C70.92,17.81 72.46,16.18 73.1,15.24 L71.12,13.92 C70.46,14.88 69.56,15.52 68.26,15.52 Z M68.08,8.37 C69.11,8.37 69.99,8.9 70.28,9.65 L65.03,11.82 C65.03,9.38 66.76,8.37 68.08,8.37 Z" id="Shape" fill="#EA4335"></path> </g> </g> </g> </svg> 